<mxfile host="app.diagrams.net" modified="2020-09-15T09:37:30.492Z" agent="5.0 (Macintosh; Intel Mac OS X 10_15_6) AppleWebKit/537.36 (KHTML, like Gecko) Chrome/84.0.4147.135 Safari/537.36" etag="sV8g4jJETj87un5EZC0b" version="13.7.1" type="github" pages="2">
  <diagram id="6a731a19-8d31-9384-78a2-239565b7b9f0" name="Page-1">
    <mxGraphModel dx="1186" dy="796" grid="1" gridSize="10" guides="1" tooltips="1" connect="1" arrows="1" fold="1" page="1" pageScale="1" pageWidth="1169" pageHeight="827" background="#003469" math="0" shadow="0">
      <root>
        <mxCell id="0" />
        <mxCell id="1" parent="0" />
        <mxCell id="2019" value="" style="rounded=1;whiteSpace=wrap;html=1;dashed=1;strokeColor=none;strokeWidth=2;fillColor=#E6E6E6;fontFamily=Verdana;fontSize=12;fontColor=#00BEF2" parent="1" vertex="1">
          <mxGeometry x="40" y="120" width="165" height="670" as="geometry" />
        </mxCell>
        <mxCell id="2020" value="" style="rounded=1;whiteSpace=wrap;html=1;dashed=1;strokeColor=none;strokeWidth=2;fillColor=#E6E6E6;fontFamily=Verdana;fontSize=12;fontColor=#00BEF2" parent="1" vertex="1">
          <mxGeometry x="220" y="120" width="165" height="670" as="geometry" />
        </mxCell>
        <mxCell id="2021" value="" style="rounded=1;whiteSpace=wrap;html=1;dashed=1;strokeColor=none;strokeWidth=2;fillColor=#E6E6E6;fontFamily=Verdana;fontSize=12;fontColor=#00BEF2" parent="1" vertex="1">
          <mxGeometry x="400" y="120" width="165" height="670" as="geometry" />
        </mxCell>
        <mxCell id="2022" value="" style="rounded=1;whiteSpace=wrap;html=1;dashed=1;strokeColor=none;strokeWidth=2;fillColor=#E6E6E6;fontFamily=Verdana;fontSize=12;fontColor=#00BEF2" parent="1" vertex="1">
          <mxGeometry x="580" y="120" width="165" height="670" as="geometry" />
        </mxCell>
        <mxCell id="2023" value="" style="rounded=1;whiteSpace=wrap;html=1;dashed=1;strokeColor=none;strokeWidth=2;fillColor=#E6E6E6;fontFamily=Verdana;fontSize=12;fontColor=#00BEF2" parent="1" vertex="1">
          <mxGeometry x="760" y="120" width="165" height="670" as="geometry" />
        </mxCell>
        <mxCell id="2024" value="" style="rounded=1;whiteSpace=wrap;html=1;dashed=1;strokeColor=none;strokeWidth=2;fillColor=#E6E6E6;fontFamily=Verdana;fontSize=12;fontColor=#00BEF2" parent="1" vertex="1">
          <mxGeometry x="940" y="120" width="165" height="670" as="geometry" />
        </mxCell>
        <mxCell id="2025" value="需求" style="whiteSpace=wrap;html=1;dashed=1;strokeColor=none;strokeWidth=2;fillColor=#3399FF;fontFamily=Helvetica;fontSize=18;fontColor=#FFFFFF;fontStyle=1" parent="1" vertex="1">
          <mxGeometry x="40" y="120" width="165" height="60" as="geometry" />
        </mxCell>
        <mxCell id="2026" value="设计" style="whiteSpace=wrap;html=1;dashed=1;strokeColor=none;strokeWidth=2;fillColor=#3399FF;fontFamily=Helvetica;fontSize=18;fontColor=#FFFFFF;fontStyle=1" parent="1" vertex="1">
          <mxGeometry x="220" y="120" width="165" height="60" as="geometry" />
        </mxCell>
        <mxCell id="2027" value="开发" style="whiteSpace=wrap;html=1;dashed=1;strokeColor=none;strokeWidth=2;fillColor=#3399FF;fontFamily=Helvetica;fontSize=18;fontColor=#FFFFFF;fontStyle=1" parent="1" vertex="1">
          <mxGeometry x="400" y="120" width="165" height="60" as="geometry" />
        </mxCell>
        <mxCell id="2028" value="测试" style="whiteSpace=wrap;html=1;dashed=1;strokeColor=none;strokeWidth=2;fillColor=#3399FF;fontFamily=Helvetica;fontSize=18;fontColor=#FFFFFF;fontStyle=1" parent="1" vertex="1">
          <mxGeometry x="580" y="120" width="165" height="60" as="geometry" />
        </mxCell>
        <mxCell id="2029" value="审核" style="whiteSpace=wrap;html=1;dashed=1;strokeColor=none;strokeWidth=2;fillColor=#3399FF;fontFamily=Helvetica;fontSize=18;fontColor=#FFFFFF;fontStyle=1" parent="1" vertex="1">
          <mxGeometry x="760" y="120" width="165" height="60" as="geometry" />
        </mxCell>
        <mxCell id="2030" value="发布" style="whiteSpace=wrap;html=1;dashed=1;strokeColor=none;strokeWidth=2;fillColor=#3399FF;fontFamily=Helvetica;fontSize=18;fontColor=#FFFFFF;fontStyle=1" parent="1" vertex="1">
          <mxGeometry x="940" y="120" width="165" height="60" as="geometry" />
        </mxCell>
        <mxCell id="2031" value="" style="shape=mxgraph.arrows.two_way_arrow_horizontal;html=1;verticalLabelPosition=bottom;verticalAlign=top;strokeWidth=2;strokeColor=none;dashed=1;fillColor=#FFFFFF;fontFamily=Verdana;fontSize=12;fontColor=#00BEF2" parent="1" vertex="1">
          <mxGeometry x="180" y="131" width="67" height="39" as="geometry" />
        </mxCell>
        <mxCell id="2032" value="" style="shape=mxgraph.arrows.two_way_arrow_horizontal;html=1;verticalLabelPosition=bottom;verticalAlign=top;strokeWidth=2;strokeColor=none;dashed=1;fillColor=#FFFFFF;fontFamily=Verdana;fontSize=12;fontColor=#00BEF2" parent="1" vertex="1">
          <mxGeometry x="360" y="131" width="67" height="39" as="geometry" />
        </mxCell>
        <mxCell id="2033" value="" style="shape=mxgraph.arrows.two_way_arrow_horizontal;html=1;verticalLabelPosition=bottom;verticalAlign=top;strokeWidth=2;strokeColor=none;dashed=1;fillColor=#FFFFFF;fontFamily=Verdana;fontSize=12;fontColor=#00BEF2" parent="1" vertex="1">
          <mxGeometry x="540" y="131" width="67" height="39" as="geometry" />
        </mxCell>
        <mxCell id="2034" value="" style="shape=mxgraph.arrows.two_way_arrow_horizontal;html=1;verticalLabelPosition=bottom;verticalAlign=top;strokeWidth=2;strokeColor=none;dashed=1;fillColor=#FFFFFF;fontFamily=Verdana;fontSize=12;fontColor=#00BEF2" parent="1" vertex="1">
          <mxGeometry x="720" y="131" width="67" height="39" as="geometry" />
        </mxCell>
        <mxCell id="2035" value="" style="shape=mxgraph.arrows.two_way_arrow_horizontal;html=1;verticalLabelPosition=bottom;verticalAlign=top;strokeWidth=2;strokeColor=none;dashed=1;fillColor=#FFFFFF;fontFamily=Verdana;fontSize=12;fontColor=#00BEF2" parent="1" vertex="1">
          <mxGeometry x="900" y="131" width="67" height="39" as="geometry" />
        </mxCell>
        <mxCell id="2036" value="" style="verticalLabelPosition=bottom;html=1;verticalAlign=top;strokeColor=none;fillColor=#003366;shape=mxgraph.azure.cloud_service;dashed=1;fontFamily=Helvetica;fontSize=18;fontColor=#FFFFFF;opacity=25" parent="1" vertex="1">
          <mxGeometry x="90" y="180" width="970" height="600" as="geometry" />
        </mxCell>
        <mxCell id="2037" value="" style="verticalLabelPosition=bottom;html=1;verticalAlign=top;strokeColor=none;fillColor=#3399FF;shape=mxgraph.azure.tablet;dashed=1;fontFamily=Helvetica;fontSize=14;fontColor=#004C99" parent="1" vertex="1">
          <mxGeometry x="66" y="401" width="50" height="37.5" as="geometry" />
        </mxCell>
        <mxCell id="2038" value="" style="verticalLabelPosition=bottom;html=1;verticalAlign=top;strokeColor=none;fillColor=#3399FF;shape=mxgraph.azure.mobile;dashed=1;fontFamily=Helvetica;fontSize=14;fontColor=#004C99" parent="1" vertex="1">
          <mxGeometry x="146" y="395" width="35" height="50" as="geometry" />
        </mxCell>
        <mxCell id="2039" value="Devices" style="verticalLabelPosition=bottom;html=1;verticalAlign=top;strokeColor=none;fillColor=#3399FF;shape=mxgraph.azure.laptop;dashed=1;fontFamily=Helvetica;fontSize=14;fontColor=#004C99" parent="1" vertex="1">
          <mxGeometry x="96" y="451" width="50" height="30" as="geometry" />
        </mxCell>
        <mxCell id="2040" value="Applications" style="verticalLabelPosition=bottom;html=1;verticalAlign=top;strokeColor=none;fillColor=#3399FF;shape=mxgraph.azure.mobile_services;dashed=1;fontFamily=Helvetica;fontSize=14;fontColor=#004C99" parent="1" vertex="1">
          <mxGeometry x="107" y="250" width="32.5" height="50" as="geometry" />
        </mxCell>
        <mxCell id="2041" value="Social" style="verticalLabelPosition=bottom;html=1;verticalAlign=top;strokeColor=none;fillColor=#3399FF;shape=mxgraph.azure.user;dashed=1;fontSize=14;fontColor=#004C99" parent="1" vertex="1">
          <mxGeometry x="92" y="680" width="47.5" height="50" as="geometry" />
        </mxCell>
        <mxCell id="2042" value="" style="verticalLabelPosition=bottom;html=1;verticalAlign=top;strokeColor=none;fillColor=#3399FF;shape=mxgraph.azure.github_code;dashed=1;fontSize=14;fontColor=#004C99" parent="1" vertex="1">
          <mxGeometry x="133" y="560" width="50" height="50" as="geometry" />
        </mxCell>
        <mxCell id="2043" value="" style="verticalLabelPosition=bottom;html=1;verticalAlign=top;strokeColor=none;fillColor=#3399FF;shape=mxgraph.azure.dropbox_code_source;dashed=1;fontSize=14;fontColor=#004C99" parent="1" vertex="1">
          <mxGeometry x="73" y="563" width="50" height="47.5" as="geometry" />
        </mxCell>
        <mxCell id="2044" value="Repositories" style="text;html=1;strokeColor=none;fillColor=none;align=center;verticalAlign=middle;whiteSpace=wrap;overflow=hidden;dashed=1;fontSize=14;fontColor=#004C99" parent="1" vertex="1">
          <mxGeometry x="60" y="620" width="120" height="20" as="geometry" />
        </mxCell>
        <mxCell id="2045" value="Azure Website" style="verticalLabelPosition=bottom;html=1;verticalAlign=top;strokeColor=none;fillColor=#3399FF;shape=mxgraph.azure.azure_website;dashed=1;fontSize=14;fontColor=#004C99" parent="1" vertex="1">
          <mxGeometry x="278" y="258" width="50" height="50" as="geometry" />
        </mxCell>
        <mxCell id="2046" value="Mobile Services" style="verticalLabelPosition=bottom;html=1;verticalAlign=top;strokeColor=none;fillColor=#3399FF;shape=mxgraph.azure.mobile_services;dashed=1;fontSize=14;fontColor=#004C99" parent="1" vertex="1">
          <mxGeometry x="287" y="661" width="32.5" height="50" as="geometry" />
        </mxCell>
        <mxCell id="2047" value="业务流转图" style="text;html=1;strokeColor=none;fillColor=none;align=center;verticalAlign=middle;whiteSpace=wrap;overflow=hidden;dashed=1;fontSize=36;fontColor=#FFFFFF;fontFamily=Helvetica;fontStyle=1" parent="1" vertex="1">
          <mxGeometry x="40" y="50" width="1060" height="50" as="geometry" />
        </mxCell>
        <mxCell id="2048" value="Business&amp;nbsp;&lt;div&gt;Analytics&lt;/div&gt;" style="rounded=1;whiteSpace=wrap;html=1;dashed=1;strokeColor=none;strokeWidth=2;fillColor=#FFFFFF;fontFamily=Helvetica;fontSize=14;fontColor=#FFB366;opacity=75;verticalAlign=top;fontStyle=1" parent="1" vertex="1">
          <mxGeometry x="410" y="190" width="140" height="260" as="geometry" />
        </mxCell>
        <mxCell id="2049" value="Data&lt;div&gt;Management&lt;/div&gt;" style="rounded=1;whiteSpace=wrap;html=1;dashed=1;strokeColor=none;strokeWidth=2;fillColor=#FFFFFF;fontFamily=Helvetica;fontSize=14;fontColor=#FFB366;opacity=75;verticalAlign=top;fontStyle=1" parent="1" vertex="1">
          <mxGeometry x="413" y="460" width="140" height="320" as="geometry" />
        </mxCell>
        <mxCell id="2050" value="SQL Reporting" style="verticalLabelPosition=bottom;html=1;verticalAlign=top;strokeColor=none;fillColor=#3399FF;shape=mxgraph.azure.sql_reporting;dashed=1;fontSize=14;fontColor=#004C99" parent="1" vertex="1">
          <mxGeometry x="460" y="258" width="40" height="50" as="geometry" />
        </mxCell>
        <mxCell id="2051" value="HDInsight" style="verticalLabelPosition=bottom;html=1;verticalAlign=top;strokeColor=none;fillColor=#3399FF;shape=mxgraph.azure.hdinsight;dashed=1;fontSize=14;fontColor=#004C99" parent="1" vertex="1">
          <mxGeometry x="458" y="355" width="50" height="50" as="geometry" />
        </mxCell>
        <mxCell id="2052" value="SQL Database" style="verticalLabelPosition=bottom;html=1;verticalAlign=top;strokeColor=none;fillColor=#3399FF;shape=mxgraph.azure.sql_database;dashed=1;fontFamily=Helvetica;fontSize=14;fontColor=#004C99" parent="1" vertex="1">
          <mxGeometry x="464" y="600" width="37.5" height="50" as="geometry" />
        </mxCell>
        <mxCell id="2053" value="Tables" style="verticalLabelPosition=bottom;html=1;verticalAlign=top;strokeColor=none;fillColor=#3399FF;shape=mxgraph.azure.storage_table;dashed=1;fontFamily=Helvetica;fontSize=14;fontColor=#004C99" parent="1" vertex="1">
          <mxGeometry x="458" y="689" width="50" height="45" as="geometry" />
        </mxCell>
        <mxCell id="2054" value="Blobs" style="verticalLabelPosition=bottom;html=1;verticalAlign=top;strokeColor=none;fillColor=#3399FF;shape=mxgraph.azure.storage_blob;dashed=1;fontFamily=Helvetica;fontSize=14;fontColor=#004C99" parent="1" vertex="1">
          <mxGeometry x="457" y="523" width="50" height="45" as="geometry" />
        </mxCell>
        <mxCell id="2055" value="Storage Management" style="rounded=1;whiteSpace=wrap;html=1;dashed=1;strokeColor=none;strokeWidth=2;fillColor=#FFFFFF;fontFamily=Helvetica;fontSize=14;fontColor=#FFB366;opacity=75;verticalAlign=top;fontStyle=1" parent="1" vertex="1">
          <mxGeometry x="594" y="240" width="140" height="280" as="geometry" />
        </mxCell>
        <mxCell id="2056" value="Storage Servers" style="verticalLabelPosition=bottom;html=1;verticalAlign=top;strokeColor=none;fillColor=#3399FF;shape=mxgraph.azure.server_rack;dashed=1;fontFamily=Helvetica;fontSize=14;fontColor=#004C99" parent="1" vertex="1">
          <mxGeometry x="639" y="316" width="50" height="50" as="geometry" />
        </mxCell>
        <mxCell id="2057" value="Database" style="verticalLabelPosition=bottom;html=1;verticalAlign=top;strokeColor=none;fillColor=#3399FF;shape=mxgraph.azure.database;dashed=1;fontFamily=Helvetica;fontSize=14;fontColor=#004C99" parent="1" vertex="1">
          <mxGeometry x="644" y="414" width="37.5" height="50" as="geometry" />
        </mxCell>
        <mxCell id="2058" value="Physical&lt;div&gt;Data Storage&lt;/div&gt;" style="verticalLabelPosition=bottom;html=1;verticalAlign=top;strokeColor=none;fillColor=#3399FF;shape=mxgraph.azure.vhd;dashed=1;fontFamily=Helvetica;fontSize=14;fontColor=#004C99" parent="1" vertex="1">
          <mxGeometry x="643" y="590" width="40" height="50" as="geometry" />
        </mxCell>
        <mxCell id="2059" value="Identity" style="rounded=1;whiteSpace=wrap;html=1;dashed=1;strokeColor=none;strokeWidth=2;fillColor=#FFFFFF;fontFamily=Helvetica;fontSize=14;fontColor=#FFB366;opacity=75;verticalAlign=top;fontStyle=1" parent="1" vertex="1">
          <mxGeometry x="773" y="196" width="140" height="134" as="geometry" />
        </mxCell>
        <mxCell id="2060" value="Windows Azure&amp;nbsp;&lt;div&gt;Active Directorry&lt;/div&gt;" style="verticalLabelPosition=bottom;html=1;verticalAlign=top;strokeColor=none;fillColor=#3399FF;shape=mxgraph.azure.azure_active_directory;dashed=1;fontFamily=Helvetica;fontSize=14;fontColor=#004C99" parent="1" vertex="1">
          <mxGeometry x="819" y="225" width="47.5" height="50" as="geometry" />
        </mxCell>
        <mxCell id="2061" value="Performance" style="rounded=1;whiteSpace=wrap;html=1;dashed=1;strokeColor=none;strokeWidth=2;fillColor=#FFFFFF;fontFamily=Helvetica;fontSize=14;fontColor=#FFB366;opacity=75;verticalAlign=top;fontStyle=1" parent="1" vertex="1">
          <mxGeometry x="774" y="341" width="140" height="199" as="geometry" />
        </mxCell>
        <mxCell id="2062" value="Caching" style="verticalLabelPosition=bottom;html=1;verticalAlign=top;strokeColor=none;fillColor=#3399FF;shape=mxgraph.azure.azure_cache;dashed=1;fontFamily=Helvetica;fontSize=14;fontColor=#004C99" parent="1" vertex="1">
          <mxGeometry x="821" y="376" width="45" height="50" as="geometry" />
        </mxCell>
        <mxCell id="2063" value="Content&amp;nbsp;&lt;div&gt;Delivery Network&lt;/div&gt;" style="verticalLabelPosition=bottom;html=1;verticalAlign=top;strokeColor=none;fillColor=#3399FF;shape=mxgraph.azure.content_delivery_network;dashed=1;fontFamily=Helvetica;fontSize=14;fontColor=#004C99" parent="1" vertex="1">
          <mxGeometry x="819" y="455" width="50" height="32.5" as="geometry" />
        </mxCell>
        <mxCell id="2064" value="Messaging" style="rounded=1;whiteSpace=wrap;html=1;dashed=1;strokeColor=none;strokeWidth=2;fillColor=#FFFFFF;fontFamily=Helvetica;fontSize=14;fontColor=#FFB366;opacity=75;verticalAlign=top;fontStyle=1" parent="1" vertex="1">
          <mxGeometry x="773" y="550" width="140" height="229" as="geometry" />
        </mxCell>
        <mxCell id="2065" value="Queues" style="verticalLabelPosition=bottom;html=1;verticalAlign=top;strokeColor=none;fillColor=#3399FF;shape=mxgraph.azure.queue_generic;dashed=1;fontFamily=Helvetica;fontSize=14;fontColor=#004C99" parent="1" vertex="1">
          <mxGeometry x="820" y="576" width="50" height="15" as="geometry" />
        </mxCell>
        <mxCell id="2066" value="Service Bus" style="verticalLabelPosition=bottom;html=1;verticalAlign=top;strokeColor=none;fillColor=#3399FF;shape=mxgraph.azure.service_bus;dashed=1;fontFamily=Helvetica;fontSize=14;fontColor=#004C99" parent="1" vertex="1">
          <mxGeometry x="824" y="624" width="45" height="50" as="geometry" />
        </mxCell>
        <mxCell id="2067" value="Media Services" style="verticalLabelPosition=bottom;html=1;verticalAlign=top;strokeColor=none;fillColor=#3399FF;shape=mxgraph.azure.media_service;dashed=1;fontFamily=Helvetica;fontSize=14;fontColor=#004C99" parent="1" vertex="1">
          <mxGeometry x="821" y="703" width="45" height="50" as="geometry" />
        </mxCell>
        <mxCell id="2068" value="Cloud&lt;div&gt;Services&lt;/div&gt;" style="rounded=1;whiteSpace=wrap;html=1;dashed=1;strokeColor=none;strokeWidth=2;fillColor=#FFFFFF;fontFamily=Helvetica;fontSize=14;fontColor=#FFB366;opacity=75;verticalAlign=top;fontStyle=1" parent="1" vertex="1">
          <mxGeometry x="233" y="397" width="140" height="223" as="geometry" />
        </mxCell>
        <mxCell id="2069" value="Cloud" style="verticalLabelPosition=bottom;html=1;verticalAlign=top;strokeColor=none;fillColor=#3399FF;shape=mxgraph.azure.cloud;dashed=1;fontSize=14;fontColor=#004C99" parent="1" vertex="1">
          <mxGeometry x="278" y="449" width="50" height="32.5" as="geometry" />
        </mxCell>
        <mxCell id="2070" value="Virtual Machine" style="verticalLabelPosition=bottom;html=1;verticalAlign=top;strokeColor=none;fillColor=#3399FF;shape=mxgraph.azure.virtual_machine;dashed=1;fontSize=14;fontColor=#004C99" parent="1" vertex="1">
          <mxGeometry x="278" y="536" width="50" height="40" as="geometry" />
        </mxCell>
        <mxCell id="2071" value="Web Dashboards" style="verticalLabelPosition=bottom;html=1;verticalAlign=top;strokeColor=none;fillColor=#3399FF;shape=mxgraph.azure.laptop;dashed=1;fontFamily=Helvetica;fontSize=14;fontColor=#004C99" parent="1" vertex="1">
          <mxGeometry x="998" y="301" width="50" height="30" as="geometry" />
        </mxCell>
        <mxCell id="2072" value="Certificates" style="verticalLabelPosition=bottom;html=1;verticalAlign=top;strokeColor=none;fillColor=#3399FF;shape=mxgraph.azure.certificate;dashed=1;fontFamily=Helvetica;fontSize=14;fontColor=#004C99" parent="1" vertex="1">
          <mxGeometry x="998" y="399" width="50" height="40" as="geometry" />
        </mxCell>
        <mxCell id="2073" value="Enterprise&lt;div&gt;Services&lt;/div&gt;" style="verticalLabelPosition=bottom;html=1;verticalAlign=top;strokeColor=none;fillColor=#3399FF;shape=mxgraph.azure.enterprise;dashed=1;fontFamily=Helvetica;fontSize=14;fontColor=#004C99" parent="1" vertex="1">
          <mxGeometry x="1008" y="518" width="30" height="50" as="geometry" />
        </mxCell>
        <mxCell id="2074" value="Seminars" style="verticalLabelPosition=bottom;html=1;verticalAlign=top;strokeColor=none;fillColor=#3399FF;shape=mxgraph.azure.user;dashed=1;fontFamily=Helvetica;fontSize=14;fontColor=#004C99" parent="1" vertex="1">
          <mxGeometry x="1001" y="630" width="47.5" height="50" as="geometry" />
        </mxCell>
        <mxCell id="2075" value="" style="arrow;html=1;endArrow=block;endFill=1;strokeColor=none;strokeWidth=4;fontFamily=Helvetica;fontSize=36;fontColor=#FFB366;fillColor=#FFB366;" parent="1" edge="1">
          <mxGeometry width="100" height="100" relative="1" as="geometry">
            <mxPoint x="167" y="283" as="sourcePoint" />
            <mxPoint x="247" y="283" as="targetPoint" />
          </mxGeometry>
        </mxCell>
        <mxCell id="2076" value="" style="arrow;html=1;endArrow=block;endFill=1;strokeColor=none;strokeWidth=4;fontFamily=Helvetica;fontSize=36;fontColor=#FFB366;fillColor=#FFB366;opacity=100" parent="1" edge="1">
          <mxGeometry width="100" height="100" relative="1" as="geometry">
            <mxPoint x="347" y="283" as="sourcePoint" />
            <mxPoint x="427" y="283" as="targetPoint" />
          </mxGeometry>
        </mxCell>
        <mxCell id="2077" value="" style="arrow;html=1;endArrow=block;endFill=1;strokeColor=none;strokeWidth=4;fontFamily=Helvetica;fontSize=36;fontColor=#FFB366;fillColor=#FFB366;" parent="1" edge="1">
          <mxGeometry width="100" height="100" relative="1" as="geometry">
            <mxPoint x="527" y="360" as="sourcePoint" />
            <mxPoint x="607" y="360" as="targetPoint" />
          </mxGeometry>
        </mxCell>
        <mxCell id="2078" value="" style="arrow;html=1;endArrow=block;endFill=1;strokeColor=none;strokeWidth=4;fontFamily=Helvetica;fontSize=36;fontColor=#FFB366;fillColor=#FFB366;" parent="1" edge="1">
          <mxGeometry width="100" height="100" relative="1" as="geometry">
            <mxPoint x="714" y="426" as="sourcePoint" />
            <mxPoint x="794" y="426" as="targetPoint" />
          </mxGeometry>
        </mxCell>
        <mxCell id="2079" value="" style="arrow;html=1;endArrow=block;endFill=1;strokeColor=none;strokeWidth=4;fontFamily=Helvetica;fontSize=36;fontColor=#FFB366;fillColor=#FFB366;" parent="1" edge="1">
          <mxGeometry width="100" height="100" relative="1" as="geometry">
            <mxPoint x="714" y="270" as="sourcePoint" />
            <mxPoint x="794" y="270" as="targetPoint" />
          </mxGeometry>
        </mxCell>
        <mxCell id="2080" value="" style="arrow;html=1;endArrow=block;endFill=1;strokeColor=none;strokeWidth=4;fontFamily=Helvetica;fontSize=36;fontColor=#FFB366;fillColor=#FFB366;" parent="1" edge="1">
          <mxGeometry width="100" height="100" relative="1" as="geometry">
            <mxPoint x="887" y="438" as="sourcePoint" />
            <mxPoint x="967" y="438" as="targetPoint" />
          </mxGeometry>
        </mxCell>
        <mxCell id="2081" value="" style="arrow;html=1;endArrow=block;endFill=1;strokeColor=none;strokeWidth=4;fontFamily=Helvetica;fontSize=36;fontColor=#FFB366;fillColor=#FFB366;" parent="1" edge="1">
          <mxGeometry width="100" height="100" relative="1" as="geometry">
            <mxPoint x="894" y="664" as="sourcePoint" />
            <mxPoint x="974" y="664" as="targetPoint" />
          </mxGeometry>
        </mxCell>
        <mxCell id="2082" value="" style="arrow;html=1;endArrow=block;endFill=1;strokeColor=none;strokeWidth=4;fontFamily=Helvetica;fontSize=36;fontColor=#FFB366;fillColor=#FFB366;" parent="1" edge="1">
          <mxGeometry width="100" height="100" relative="1" as="geometry">
            <mxPoint x="707" y="639" as="sourcePoint" />
            <mxPoint x="787" y="639" as="targetPoint" />
          </mxGeometry>
        </mxCell>
        <mxCell id="2083" value="" style="arrow;html=1;endArrow=block;endFill=1;strokeColor=none;strokeWidth=4;fontFamily=Helvetica;fontSize=36;fontColor=#FFB366;fillColor=#FFB366;" parent="1" edge="1">
          <mxGeometry width="100" height="100" relative="1" as="geometry">
            <mxPoint x="534" y="624" as="sourcePoint" />
            <mxPoint x="614" y="624" as="targetPoint" />
          </mxGeometry>
        </mxCell>
        <mxCell id="2084" value="" style="arrow;html=1;endArrow=block;endFill=1;strokeColor=none;strokeWidth=4;fontFamily=Helvetica;fontSize=36;fontColor=#FFB366;fillColor=#FFB366;" parent="1" edge="1">
          <mxGeometry width="100" height="100" relative="1" as="geometry">
            <mxPoint x="347" y="536" as="sourcePoint" />
            <mxPoint x="427" y="536" as="targetPoint" />
          </mxGeometry>
        </mxCell>
        <mxCell id="2085" value="" style="arrow;html=1;endArrow=block;endFill=1;strokeColor=none;strokeWidth=4;fontFamily=Helvetica;fontSize=36;fontColor=#FFB366;fillColor=#FFB366;" parent="1" edge="1">
          <mxGeometry width="100" height="100" relative="1" as="geometry">
            <mxPoint x="174" y="688" as="sourcePoint" />
            <mxPoint x="254" y="688" as="targetPoint" />
          </mxGeometry>
        </mxCell>
      </root>
    </mxGraphModel>
  </diagram>
  <diagram id="mmX9C4Rw7AtNFkwM277g" name="第 2 页">
    <mxGraphModel dx="1586" dy="747" grid="0" gridSize="10" guides="1" tooltips="1" connect="1" arrows="1" fold="1" page="0" pageScale="1" pageWidth="827" pageHeight="1169" background="#003469" math="0" shadow="0">
      <root>
        <mxCell id="YRHj9bLDyfWNwkcPQVmM-0" />
        <mxCell id="YRHj9bLDyfWNwkcPQVmM-1" parent="YRHj9bLDyfWNwkcPQVmM-0" />
        <mxCell id="-rMhSwc-yDZGtnGl0W8q-0" value="" style="rounded=1;whiteSpace=wrap;html=1;dashed=1;strokeColor=none;strokeWidth=2;fontFamily=Verdana;fontSize=12;fontColor=#00BEF2;fillColor=#7048E8;" vertex="1" parent="YRHj9bLDyfWNwkcPQVmM-1">
          <mxGeometry x="-345" y="118" width="165" height="670" as="geometry" />
        </mxCell>
        <mxCell id="-rMhSwc-yDZGtnGl0W8q-1" value="" style="rounded=1;whiteSpace=wrap;html=1;dashed=1;strokeColor=none;strokeWidth=2;fontFamily=Verdana;fontSize=12;fontColor=#00BEF2;fillColor=#7048E8;" vertex="1" parent="YRHj9bLDyfWNwkcPQVmM-1">
          <mxGeometry x="-165" y="118" width="165" height="670" as="geometry" />
        </mxCell>
        <mxCell id="-rMhSwc-yDZGtnGl0W8q-2" value="" style="rounded=1;whiteSpace=wrap;html=1;dashed=1;strokeColor=none;strokeWidth=2;fontFamily=Verdana;fontSize=12;fontColor=#00BEF2;fillColor=#7048E8;" vertex="1" parent="YRHj9bLDyfWNwkcPQVmM-1">
          <mxGeometry x="400" y="120" width="165" height="670" as="geometry" />
        </mxCell>
        <mxCell id="-rMhSwc-yDZGtnGl0W8q-3" value="" style="rounded=1;whiteSpace=wrap;html=1;dashed=1;strokeColor=none;strokeWidth=2;fontFamily=Verdana;fontSize=12;fontColor=#00BEF2;fillColor=#7048E8;" vertex="1" parent="YRHj9bLDyfWNwkcPQVmM-1">
          <mxGeometry x="580" y="120" width="165" height="670" as="geometry" />
        </mxCell>
        <mxCell id="-rMhSwc-yDZGtnGl0W8q-4" value="" style="rounded=1;whiteSpace=wrap;html=1;dashed=1;strokeColor=none;strokeWidth=2;fontFamily=Verdana;fontSize=12;fontColor=#00BEF2;fillColor=#7048E8;" vertex="1" parent="YRHj9bLDyfWNwkcPQVmM-1">
          <mxGeometry x="760" y="120" width="165" height="670" as="geometry" />
        </mxCell>
        <mxCell id="-rMhSwc-yDZGtnGl0W8q-6" value="需求" style="whiteSpace=wrap;html=1;dashed=1;strokeColor=none;strokeWidth=2;fontFamily=Helvetica;fontSize=18;fontColor=#FFFFFF;fontStyle=1;fillColor=#748ffc;" vertex="1" parent="YRHj9bLDyfWNwkcPQVmM-1">
          <mxGeometry x="-345" y="118" width="165" height="60" as="geometry" />
        </mxCell>
        <mxCell id="-rMhSwc-yDZGtnGl0W8q-7" value="设计" style="whiteSpace=wrap;html=1;dashed=1;strokeColor=none;strokeWidth=2;fontFamily=Helvetica;fontSize=18;fontColor=#FFFFFF;fontStyle=1;fillColor=#748FFC;" vertex="1" parent="YRHj9bLDyfWNwkcPQVmM-1">
          <mxGeometry x="-165" y="118" width="165" height="60" as="geometry" />
        </mxCell>
        <mxCell id="-rMhSwc-yDZGtnGl0W8q-8" value="开发" style="whiteSpace=wrap;html=1;dashed=1;strokeColor=none;strokeWidth=2;fontFamily=Helvetica;fontSize=18;fontColor=#FFFFFF;fontStyle=1;fillColor=#748FFC;" vertex="1" parent="YRHj9bLDyfWNwkcPQVmM-1">
          <mxGeometry x="400" y="120" width="165" height="60" as="geometry" />
        </mxCell>
        <mxCell id="-rMhSwc-yDZGtnGl0W8q-9" value="测试" style="whiteSpace=wrap;html=1;dashed=1;strokeColor=none;strokeWidth=2;fontFamily=Helvetica;fontSize=18;fontColor=#FFFFFF;fontStyle=1;fillColor=#748FFC;" vertex="1" parent="YRHj9bLDyfWNwkcPQVmM-1">
          <mxGeometry x="580" y="120" width="165" height="60" as="geometry" />
        </mxCell>
        <mxCell id="-rMhSwc-yDZGtnGl0W8q-10" value="审核" style="whiteSpace=wrap;html=1;dashed=1;strokeColor=none;strokeWidth=2;fontFamily=Helvetica;fontSize=18;fontColor=#FFFFFF;fontStyle=1;fillColor=#748FFC;" vertex="1" parent="YRHj9bLDyfWNwkcPQVmM-1">
          <mxGeometry x="760" y="120" width="165" height="60" as="geometry" />
        </mxCell>
        <mxCell id="-rMhSwc-yDZGtnGl0W8q-28" value="业务流转" style="text;html=1;strokeColor=none;fillColor=none;align=center;verticalAlign=middle;whiteSpace=wrap;overflow=hidden;dashed=1;fontSize=36;fontColor=#FFFFFF;fontFamily=Helvetica;fontStyle=1" vertex="1" parent="YRHj9bLDyfWNwkcPQVmM-1">
          <mxGeometry x="-343" y="50" width="1443" height="50" as="geometry" />
        </mxCell>
        <mxCell id="mXLnGENypxI35JNoii4T-1" value="输出需求项" style="rounded=0;whiteSpace=wrap;html=1;fillColor=#8881F0;strokeColor=none;fontColor=#FFFFFF;fontSize=15;" vertex="1" parent="YRHj9bLDyfWNwkcPQVmM-1">
          <mxGeometry x="-321" y="198" width="109" height="41" as="geometry" />
        </mxCell>
        <mxCell id="mXLnGENypxI35JNoii4T-2" value="输出设计稿" style="rounded=0;whiteSpace=wrap;html=1;fillColor=#8881F0;strokeColor=none;fontColor=#FFFFFF;fontSize=15;" vertex="1" parent="YRHj9bLDyfWNwkcPQVmM-1">
          <mxGeometry x="-144" y="198" width="109" height="41" as="geometry" />
        </mxCell>
        <mxCell id="mXLnGENypxI35JNoii4T-8" value="发布测试" style="rounded=0;whiteSpace=wrap;html=1;fillColor=#8881F0;strokeColor=none;fontColor=#FFFFFF;fontSize=15;" vertex="1" parent="YRHj9bLDyfWNwkcPQVmM-1">
          <mxGeometry x="428" y="582" width="109" height="42" as="geometry" />
        </mxCell>
        <mxCell id="mXLnGENypxI35JNoii4T-9" value="测试" style="rounded=0;whiteSpace=wrap;html=1;fillColor=#8881F0;strokeColor=none;fontColor=#FFFFFF;fontSize=15;" vertex="1" parent="YRHj9bLDyfWNwkcPQVmM-1">
          <mxGeometry x="608" y="583" width="109" height="41" as="geometry" />
        </mxCell>
        <mxCell id="mXLnGENypxI35JNoii4T-10" value="输出测试结果" style="rounded=0;whiteSpace=wrap;html=1;fillColor=#8881F0;strokeColor=none;fontColor=#FFFFFF;fontSize=15;" vertex="1" parent="YRHj9bLDyfWNwkcPQVmM-1">
          <mxGeometry x="608" y="642" width="109" height="41" as="geometry" />
        </mxCell>
        <mxCell id="mXLnGENypxI35JNoii4T-12" value="" style="rounded=1;whiteSpace=wrap;html=1;dashed=1;strokeColor=none;strokeWidth=2;fontFamily=Verdana;fontSize=12;fontColor=#00BEF2;fillColor=#7048E8;" vertex="1" parent="YRHj9bLDyfWNwkcPQVmM-1">
          <mxGeometry x="941" y="118" width="429" height="834" as="geometry" />
        </mxCell>
        <mxCell id="mXLnGENypxI35JNoii4T-13" value="发布" style="whiteSpace=wrap;html=1;dashed=1;strokeColor=none;strokeWidth=2;fontFamily=Helvetica;fontSize=18;fontColor=#FFFFFF;fontStyle=1;fillColor=#748FFC;" vertex="1" parent="YRHj9bLDyfWNwkcPQVmM-1">
          <mxGeometry x="941" y="118" width="165" height="60" as="geometry" />
        </mxCell>
        <mxCell id="mXLnGENypxI35JNoii4T-14" value="输出审核结果" style="rounded=0;whiteSpace=wrap;html=1;fillColor=#8881F0;strokeColor=none;fontColor=#FFFFFF;fontSize=15;" vertex="1" parent="YRHj9bLDyfWNwkcPQVmM-1">
          <mxGeometry x="788" y="711" width="109" height="41" as="geometry" />
        </mxCell>
        <mxCell id="mXLnGENypxI35JNoii4T-15" value="发布" style="rounded=0;whiteSpace=wrap;html=1;fillColor=#8881F0;strokeColor=none;fontColor=#FFFFFF;fontSize=15;" vertex="1" parent="YRHj9bLDyfWNwkcPQVmM-1">
          <mxGeometry x="969" y="711" width="109" height="41" as="geometry" />
        </mxCell>
        <mxCell id="mXLnGENypxI35JNoii4T-16" value="内容审核" style="rounded=0;whiteSpace=wrap;html=1;fillColor=#8881F0;strokeColor=none;fontColor=#FFFFFF;fontSize=15;" vertex="1" parent="YRHj9bLDyfWNwkcPQVmM-1">
          <mxGeometry x="788" y="642" width="109" height="41" as="geometry" />
        </mxCell>
        <mxCell id="gOYugbjeYTBjjMo5Y4Ug-0" value="" style="arrow;html=1;endArrow=block;endFill=1;strokeColor=none;strokeWidth=4;fontFamily=Helvetica;fontSize=36;fontColor=#FFB366;fillColor=#FFFFFF;" edge="1" parent="YRHj9bLDyfWNwkcPQVmM-1">
          <mxGeometry width="100" height="100" relative="1" as="geometry">
            <mxPoint x="-202" y="218" as="sourcePoint" />
            <mxPoint x="-146" y="218" as="targetPoint" />
          </mxGeometry>
        </mxCell>
        <mxCell id="gOYugbjeYTBjjMo5Y4Ug-2" value="" style="arrow;html=1;endArrow=block;endFill=1;strokeColor=none;strokeWidth=4;fontFamily=Helvetica;fontSize=36;fontColor=#FFB366;fillColor=#FFFFFF;" edge="1" parent="YRHj9bLDyfWNwkcPQVmM-1">
          <mxGeometry width="100" height="100" relative="1" as="geometry">
            <mxPoint x="542" y="603" as="sourcePoint" />
            <mxPoint x="598" y="603" as="targetPoint" />
          </mxGeometry>
        </mxCell>
        <mxCell id="gOYugbjeYTBjjMo5Y4Ug-3" value="" style="arrow;html=1;endArrow=block;endFill=1;strokeColor=none;strokeWidth=4;fontFamily=Helvetica;fontSize=36;fontColor=#FFB366;fillColor=#FFFFFF;" edge="1" parent="YRHj9bLDyfWNwkcPQVmM-1">
          <mxGeometry width="100" height="100" relative="1" as="geometry">
            <mxPoint x="725" y="662" as="sourcePoint" />
            <mxPoint x="781" y="662" as="targetPoint" />
          </mxGeometry>
        </mxCell>
        <mxCell id="gOYugbjeYTBjjMo5Y4Ug-4" value="" style="arrow;html=1;endArrow=block;endFill=1;strokeColor=none;strokeWidth=4;fontFamily=Helvetica;fontSize=36;fontColor=#FFB366;fillColor=#FFFFFF;" edge="1" parent="YRHj9bLDyfWNwkcPQVmM-1">
          <mxGeometry width="100" height="100" relative="1" as="geometry">
            <mxPoint x="908" y="731" as="sourcePoint" />
            <mxPoint x="964" y="731" as="targetPoint" />
          </mxGeometry>
        </mxCell>
        <mxCell id="gOYugbjeYTBjjMo5Y4Ug-7" value="" style="rounded=1;whiteSpace=wrap;html=1;dashed=1;strokeColor=none;strokeWidth=2;fontFamily=Verdana;fontSize=12;fontColor=#00BEF2;fillColor=#7048E8;" vertex="1" parent="YRHj9bLDyfWNwkcPQVmM-1">
          <mxGeometry x="16" y="118" width="165" height="670" as="geometry" />
        </mxCell>
        <mxCell id="gOYugbjeYTBjjMo5Y4Ug-8" value="Admin" style="whiteSpace=wrap;html=1;dashed=1;strokeColor=none;strokeWidth=2;fontFamily=Helvetica;fontSize=18;fontColor=#FFFFFF;fontStyle=1;fillColor=#748FFC;" vertex="1" parent="YRHj9bLDyfWNwkcPQVmM-1">
          <mxGeometry x="16" y="118" width="165" height="60" as="geometry" />
        </mxCell>
        <mxCell id="gOYugbjeYTBjjMo5Y4Ug-10" value="建立产品" style="rounded=0;whiteSpace=wrap;html=1;fillColor=#8881F0;strokeColor=none;fontColor=#FFFFFF;fontSize=15;" vertex="1" parent="YRHj9bLDyfWNwkcPQVmM-1">
          <mxGeometry x="44" y="198" width="109" height="41" as="geometry" />
        </mxCell>
        <mxCell id="gOYugbjeYTBjjMo5Y4Ug-11" value="分配运营和审核" style="rounded=0;whiteSpace=wrap;html=1;fillColor=#8881F0;strokeColor=none;fontColor=#FFFFFF;fontSize=15;" vertex="1" parent="YRHj9bLDyfWNwkcPQVmM-1">
          <mxGeometry x="44" y="312" width="109" height="41" as="geometry" />
        </mxCell>
        <mxCell id="gOYugbjeYTBjjMo5Y4Ug-12" value="建立运营人员账户" style="rounded=0;whiteSpace=wrap;html=1;fillColor=#8881F0;strokeColor=none;fontColor=#FFFFFF;fontSize=15;" vertex="1" parent="YRHj9bLDyfWNwkcPQVmM-1">
          <mxGeometry x="44" y="255" width="109" height="41" as="geometry" />
        </mxCell>
        <mxCell id="gOYugbjeYTBjjMo5Y4Ug-13" value="开发" style="rounded=0;whiteSpace=wrap;html=1;fillColor=#8881F0;strokeColor=none;fontColor=#FFFFFF;fontSize=15;" vertex="1" parent="YRHj9bLDyfWNwkcPQVmM-1">
          <mxGeometry x="428" y="515" width="109" height="42" as="geometry" />
        </mxCell>
        <mxCell id="gOYugbjeYTBjjMo5Y4Ug-14" value="" style="rounded=1;whiteSpace=wrap;html=1;dashed=1;strokeColor=none;strokeWidth=2;fontFamily=Verdana;fontSize=12;fontColor=#00BEF2;fillColor=#7048E8;" vertex="1" parent="YRHj9bLDyfWNwkcPQVmM-1">
          <mxGeometry x="210" y="118" width="165" height="670" as="geometry" />
        </mxCell>
        <mxCell id="gOYugbjeYTBjjMo5Y4Ug-15" value="项目管理" style="whiteSpace=wrap;html=1;dashed=1;strokeColor=none;strokeWidth=2;fontFamily=Helvetica;fontSize=18;fontColor=#FFFFFF;fontStyle=1;fillColor=#748FFC;" vertex="1" parent="YRHj9bLDyfWNwkcPQVmM-1">
          <mxGeometry x="210" y="118" width="165" height="60" as="geometry" />
        </mxCell>
        <mxCell id="mXLnGENypxI35JNoii4T-7" value="功能项管理" style="rounded=0;whiteSpace=wrap;html=1;fillColor=#8881F0;strokeColor=none;fontColor=#FFFFFF;fontSize=15;" vertex="1" parent="YRHj9bLDyfWNwkcPQVmM-1">
          <mxGeometry x="238" y="383" width="109" height="41" as="geometry" />
        </mxCell>
        <mxCell id="gOYugbjeYTBjjMo5Y4Ug-6" value="内容模型管理" style="rounded=0;whiteSpace=wrap;html=1;fillColor=#8881F0;strokeColor=none;fontColor=#FFFFFF;fontSize=15;" vertex="1" parent="YRHj9bLDyfWNwkcPQVmM-1">
          <mxGeometry x="238" y="312" width="109" height="42" as="geometry" />
        </mxCell>
        <mxCell id="gOYugbjeYTBjjMo5Y4Ug-16" value="终端" style="rounded=1;absoluteArcSize=1;arcSize=2;html=1;gradientColor=none;shadow=0;dashed=1;fontSize=12;align=left;verticalAlign=top;spacing=10;spacingTop=-4;fillColor=none;dashPattern=1 2;strokeWidth=2;fontColor=#333333;strokeColor=#0066CC;" vertex="1" parent="YRHj9bLDyfWNwkcPQVmM-1">
          <mxGeometry x="960" y="768" width="379.47" height="140" as="geometry" />
        </mxCell>
        <mxCell id="gOYugbjeYTBjjMo5Y4Ug-17" value="小程序" style="shape=image;html=1;verticalAlign=top;verticalLabelPosition=bottom;labelBackgroundColor=none;imageAspect=0;aspect=fixed;image=https://cdn4.iconfinder.com/data/icons/logos-and-brands/512/371_Wechat_logo-128.png;rounded=0;fillColor=#3399FF;fontColor=#333333;" vertex="1" parent="YRHj9bLDyfWNwkcPQVmM-1">
          <mxGeometry x="1117.74" y="810" width="44" height="44" as="geometry" />
        </mxCell>
        <mxCell id="gOYugbjeYTBjjMo5Y4Ug-18" value="小程序&lt;br&gt;" style="shape=image;html=1;verticalAlign=top;verticalLabelPosition=bottom;labelBackgroundColor=none;imageAspect=0;aspect=fixed;image=https://cdn4.iconfinder.com/data/icons/logos-and-brands/512/13_Alipay_logo_logos-128.png;rounded=0;fillColor=#3399FF;fontColor=#333333;" vertex="1" parent="YRHj9bLDyfWNwkcPQVmM-1">
          <mxGeometry x="1190.74" y="812.5" width="39" height="39" as="geometry" />
        </mxCell>
        <mxCell id="gOYugbjeYTBjjMo5Y4Ug-19" value="PC" style="shape=image;verticalLabelPosition=bottom;labelBackgroundColor=none;verticalAlign=top;aspect=fixed;imageAspect=0;image=data:image/svg+xml,PHN2ZyB4bWxuczpjYz0iaHR0cDovL2NyZWF0aXZlY29tbW9ucy5vcmcvbnMjIiB4bWxuczpkYz0iaHR0cDovL3B1cmwub3JnL2RjL2VsZW1lbnRzLzEuMS8iIHhtbG5zOmlua3NjYXBlPSJodHRwOi8vd3d3Lmlua3NjYXBlLm9yZy9uYW1lc3BhY2VzL2lua3NjYXBlIiB4bWxuczpyZGY9Imh0dHA6Ly93d3cudzMub3JnLzE5OTkvMDIvMjItcmRmLXN5bnRheC1ucyMiIHhtbG5zOnNvZGlwb2RpPSJodHRwOi8vc29kaXBvZGkuc291cmNlZm9yZ2UubmV0L0RURC9zb2RpcG9kaS0wLmR0ZCIgeG1sbnM6c3ZnPSJodHRwOi8vd3d3LnczLm9yZy8yMDAwL3N2ZyIgeG1sbnM9Imh0dHA6Ly93d3cudzMub3JnLzIwMDAvc3ZnIiB4bWxuczp4bGluaz0iaHR0cDovL3d3dy53My5vcmcvMTk5OS94bGluayIgdmVyc2lvbj0iMS4xIiBpZD0ic3ZnMzE5NiIgaW5rc2NhcGU6dmVyc2lvbj0iMC45Mi4zICgyNDA1NTQ2LCAyMDE4LTAzLTExKSIgc29kaXBvZGk6ZG9jbmFtZT0iZGV2aWNlX2Rlc2t0b3BfMS5zdmciIHg9IjBweCIgeT0iMHB4IiB2aWV3Qm94PSIwIDAgNjYuNzUgNDMuNjMiIHN0eWxlPSJlbmFibGUtYmFja2dyb3VuZDpuZXcgMCAwIDY2Ljc1IDQzLjYzOyIgeG1sOnNwYWNlPSJwcmVzZXJ2ZSI+JiN4YTs8c29kaXBvZGk6bmFtZWR2aWV3IGJvcmRlcmNvbG9yPSIjNjY2NjY2IiBib3JkZXJvcGFjaXR5PSIxIiBmaXQtbWFyZ2luLWJvdHRvbT0iMCIgZml0LW1hcmdpbi1sZWZ0PSIwIiBmaXQtbWFyZ2luLXJpZ2h0PSIwIiBmaXQtbWFyZ2luLXRvcD0iMCIgZ3JpZHRvbGVyYW5jZT0iMTAiIGd1aWRldG9sZXJhbmNlPSIxMCIgaWQ9Im5hbWVkdmlldzMxOTgiIGlua3NjYXBlOmN1cnJlbnQtbGF5ZXI9InN2ZzMxOTYiIGlua3NjYXBlOmN4PSI0NC41MDAwMTUiIGlua3NjYXBlOmN5PSIyOS4wNzk0NCIgaW5rc2NhcGU6cGFnZW9wYWNpdHk9IjAiIGlua3NjYXBlOnBhZ2VzaGFkb3c9IjIiIGlua3NjYXBlOndpbmRvdy1oZWlnaHQ9IjEwMTciIGlua3NjYXBlOndpbmRvdy1tYXhpbWl6ZWQ9IjEiIGlua3NjYXBlOndpbmRvdy13aWR0aD0iMTkyMCIgaW5rc2NhcGU6d2luZG93LXg9Ii04IiBpbmtzY2FwZTp3aW5kb3cteT0iLTgiIGlua3NjYXBlOnpvb209IjE0LjQxMDQxMiIgb2JqZWN0dG9sZXJhbmNlPSIxMCIgcGFnZWNvbG9yPSIjZmZmZmZmIiBzaG93Z3JpZD0iZmFsc2UiPiYjeGE7CTwvc29kaXBvZGk6bmFtZWR2aWV3PiYjeGE7PGcgaWQ9ImczMTk0IiB0cmFuc2Zvcm09InRyYW5zbGF0ZSgtMC43NSwtMC43NDYzNzkpIj4mI3hhOwk8dGl0bGUgaWQ9InRpdGxlMzE1OSI+UGFnZS0xPC90aXRsZT4mI3hhOwk8ZyBpZD0iZ3JvdXAzNTA5LTEiIHRyYW5zZm9ybT0idHJhbnNsYXRlKDAuNzUsLTAuNDAxMTIxKSI+JiN4YTsJCTx0aXRsZSBpZD0idGl0bGUzMTYxIj5EZXZpY2U6IERlc2t0b3AgIzE8L3RpdGxlPiYjeGE7CQk8ZyBpZD0ic2hhcGUzNTEwLTIiIHRyYW5zZm9ybT0idHJhbnNsYXRlKDEuNSwtOS4yODUpIj4mI3hhOwkJCTx0aXRsZSBpZD0idGl0bGUzMTYzIj5yZWN0MjM1MDwvdGl0bGU+JiN4YTsJCQk8cmVjdCBpZD0icmVjdDMxNjUiIHk9IjEwLjYyIiBzdHlsZT0iZmlsbDojNTVBNUU0OyIgd2lkdGg9IjYzIiBoZWlnaHQ9IjM0LjUiLz4mI3hhOwkJPC9nPiYjeGE7CQk8ZyBpZD0ic2hhcGUzNTExLTQiIHRyYW5zZm9ybT0idHJhbnNsYXRlKDQ1LjYzNzUsLTI1LjEwMjUpIj4mI3hhOwkJCTx0aXRsZSBpZD0idGl0bGUzMTY4Ij5wb2x5Z29uMjM1MjwvdGl0bGU+JiN4YTsJCQk8cGF0aCBpZD0icGF0aDMxNzAiIGlua3NjYXBlOmNvbm5lY3Rvci1jdXJ2YXR1cmU9IjAiIHN0eWxlPSJmaWxsOiNGRkZGRkY7ZmlsbC1vcGFjaXR5OjAuMjsiIGQ9Ik0wLDI2LjI1bDE4Ljg2LDE4Ljg3VjI2LjI1SDB6Ii8+JiN4YTsJCTwvZz4mI3hhOwkJPGcgaWQ9InNoYXBlMzUxMi02IiB0cmFuc2Zvcm09InRyYW5zbGF0ZSgxOS44NTI1LC0xLjIyMjUpIj4mI3hhOwkJCTx0aXRsZSBpZD0idGl0bGUzMTczIj5wb2x5Z29uMjM1NDwvdGl0bGU+JiN4YTsJCQk8cGF0aCBpZD0icGF0aDMxNzUiIGlua3NjYXBlOmNvbm5lY3Rvci1jdXJ2YXR1cmU9IjAiIHN0eWxlPSJmaWxsOiM1RTVFNUU7IiBkPSJNMS42LDQzLjYyaDI0LjAzbDEuNTksMS41SDBMMS42LDQzLjYyeiIvPiYjeGE7CQk8L2c+JiN4YTsJCTxnIGlkPSJzaGFwZTM1MTMtOCIgdHJhbnNmb3JtPSJ0cmFuc2xhdGUoMTkuODIyNSkiPiYjeGE7CQkJPHRpdGxlIGlkPSJ0aXRsZTMxNzgiPnBhdGgyMzU2PC90aXRsZT4mI3hhOwkJCTxwYXRoIGlkPSJwYXRoMzE4MCIgaW5rc2NhcGU6Y29ubmVjdG9yLWN1cnZhdHVyZT0iMCIgc3R5bGU9ImZpbGw6IzJFMkUyRTsiIGQ9Ik0yNi4xNyw0NC42NUgxLjE4QzAuMDIsNDUuMTIsMCw0NC4xLDAsNDMuOSAgICAgaDI3LjI4QzI3LjI1LDQ0LjEsMjcuNDMsNDUuMTIsMjYuMTcsNDQuNjV6Ii8+JiN4YTsJCTwvZz4mI3hhOwkJPGcgaWQ9InNoYXBlMzUxNC0xMCIgdHJhbnNmb3JtPSJ0cmFuc2xhdGUoMjcuNzUsLTEuOTcyNSkiPiYjeGE7CQkJPHRpdGxlIGlkPSJ0aXRsZTMxODMiPnBvbHlnb24yMzU4PC90aXRsZT4mI3hhOwkJCTxwYXRoIGlkPSJwYXRoMzE4NSIgaW5rc2NhcGU6Y29ubmVjdG9yLWN1cnZhdHVyZT0iMCIgc3R5bGU9ImZpbGw6IzJFMkUyRTsiIGQ9Ik0wLjkzLDM5Ljg3aDkuNTdsMC45Myw1LjI1SDBMMC45MywzOS44N3oiLz4mI3hhOwkJPC9nPiYjeGE7CQk8ZyBpZD0ic2hhcGUzNTE1LTEyIiB0cmFuc2Zvcm09InRyYW5zbGF0ZSgwLC03LjIyMjUpIj4mI3hhOwkJCTx0aXRsZSBpZD0idGl0bGUzMTg4Ij5wYXRoMjM2MDwvdGl0bGU+JiN4YTsJCQk8cGF0aCBpZD0icGF0aDMxOTAiIGlua3NjYXBlOmNvbm5lY3Rvci1jdXJ2YXR1cmU9IjAiIHN0eWxlPSJmaWxsOiMyMjFGMUY7IiBkPSJNNjUuMjUsOC4zN0gxLjVDMC42Nyw4LjM3LDAsOS4wNCwwLDkuODd2MzMuNzUgICAgIGMwLDAuODMsMC42NywxLjUsMS41LDEuNWg2My43NWMwLjgzLDAsMS41LTAuNjcsMS41LTEuNVY5Ljg3QzY2Ljc1LDkuMDQsNjYuMDgsOC4zNyw2NS4yNSw4LjM3eiBNNjQuNSw0Mi44N0gyLjI1VjEwLjYySDY0LjUgICAgIFY0Mi44N3oiLz4mI3hhOwkJPC9nPiYjeGE7CTwvZz4mI3hhOzwvZz4mI3hhOzwvc3ZnPg==;strokeColor=#000000;fillColor=#ffffff;gradientColor=none;fontSize=12;align=center;fontColor=#333333;" vertex="1" parent="YRHj9bLDyfWNwkcPQVmM-1">
          <mxGeometry x="1247.74" y="810" width="67" height="44" as="geometry" />
        </mxCell>
        <mxCell id="gOYugbjeYTBjjMo5Y4Ug-20" value="iOS" style="shape=image;verticalLabelPosition=bottom;labelBackgroundColor=none;verticalAlign=top;aspect=fixed;imageAspect=0;image=data:image/svg+xml,PHN2ZyB4bWxuczpjYz0iaHR0cDovL2NyZWF0aXZlY29tbW9ucy5vcmcvbnMjIiB4bWxuczpkYz0iaHR0cDovL3B1cmwub3JnL2RjL2VsZW1lbnRzLzEuMS8iIHhtbG5zOmlua3NjYXBlPSJodHRwOi8vd3d3Lmlua3NjYXBlLm9yZy9uYW1lc3BhY2VzL2lua3NjYXBlIiB4bWxuczpyZGY9Imh0dHA6Ly93d3cudzMub3JnLzE5OTkvMDIvMjItcmRmLXN5bnRheC1ucyMiIHhtbG5zOnNvZGlwb2RpPSJodHRwOi8vc29kaXBvZGkuc291cmNlZm9yZ2UubmV0L0RURC9zb2RpcG9kaS0wLmR0ZCIgeG1sbnM6c3ZnPSJodHRwOi8vd3d3LnczLm9yZy8yMDAwL3N2ZyIgeG1sbnM9Imh0dHA6Ly93d3cudzMub3JnLzIwMDAvc3ZnIiB4bWxuczp4bGluaz0iaHR0cDovL3d3dy53My5vcmcvMTk5OS94bGluayIgdmVyc2lvbj0iMS4xIiBpZD0ic3ZnNDE2OSIgaW5rc2NhcGU6dmVyc2lvbj0iMC45Mi4zICgyNDA1NTQ2LCAyMDE4LTAzLTExKSIgc29kaXBvZGk6ZG9jbmFtZT0iZGV2aWNlX2lwaG9uZS5zdmciIHg9IjBweCIgeT0iMHB4IiB2aWV3Qm94PSIwIDAgMjguODEgNTguMTIiIHN0eWxlPSJlbmFibGUtYmFja2dyb3VuZDpuZXcgMCAwIDI4LjgxIDU4LjEyOyIgeG1sOnNwYWNlPSJwcmVzZXJ2ZSI+JiN4YTs8c29kaXBvZGk6bmFtZWR2aWV3IGJvcmRlcmNvbG9yPSIjNjY2NjY2IiBib3JkZXJvcGFjaXR5PSIxIiBmaXQtbWFyZ2luLWJvdHRvbT0iMCIgZml0LW1hcmdpbi1sZWZ0PSIwIiBmaXQtbWFyZ2luLXJpZ2h0PSIwIiBmaXQtbWFyZ2luLXRvcD0iMCIgZ3JpZHRvbGVyYW5jZT0iMTAiIGd1aWRldG9sZXJhbmNlPSIxMCIgaWQ9Im5hbWVkdmlldzQxNzEiIGlua3NjYXBlOmN1cnJlbnQtbGF5ZXI9InN2ZzQxNjkiIGlua3NjYXBlOmN4PSIxOS4yMDg4NTYiIGlua3NjYXBlOmN5PSIzOC43NDg4NDQiIGlua3NjYXBlOnBhZ2VvcGFjaXR5PSIwIiBpbmtzY2FwZTpwYWdlc2hhZG93PSIyIiBpbmtzY2FwZTp3aW5kb3ctaGVpZ2h0PSIxMDE3IiBpbmtzY2FwZTp3aW5kb3ctbWF4aW1pemVkPSIxIiBpbmtzY2FwZTp3aW5kb3ctd2lkdGg9IjE5MjAiIGlua3NjYXBlOndpbmRvdy14PSItOCIgaW5rc2NhcGU6d2luZG93LXk9Ii04IiBpbmtzY2FwZTp6b29tPSIxMS4xODg3IiBvYmplY3R0b2xlcmFuY2U9IjEwIiBwYWdlY29sb3I9IiNmZmZmZmYiIHNob3dncmlkPSJmYWxzZSI+JiN4YTsJPC9zb2RpcG9kaTpuYW1lZHZpZXc+JiN4YTs8ZyBpZD0iZzQxNjciIHRyYW5zZm9ybT0idHJhbnNsYXRlKC0xLjczNjE4NDllLTUpIj4mI3hhOwk8dGl0bGUgaWQ9InRpdGxlNDEyMiI+UGFnZS0xPC90aXRsZT4mI3hhOwk8ZyBpZD0iZ3JvdXAzNDU4LTEiPiYjeGE7CQk8dGl0bGUgaWQ9InRpdGxlNDEyNCI+RGV2aWNlOiBpUGhvbmU8L3RpdGxlPiYjeGE7CQk8ZyBpZD0ic2hhcGUzNDU5LTIiPiYjeGE7CQkJPHRpdGxlIGlkPSJ0aXRsZTQxMjYiPlNoZWV0LjM0NTk8L3RpdGxlPiYjeGE7CQkJPHBhdGggaWQ9InBhdGg0MTI4IiBpbmtzY2FwZTpjb25uZWN0b3ItY3VydmF0dXJlPSIwIiBzdHlsZT0iZmlsbDojM0Y1NzY1OyIgZD0iTTI4LjgxLDUzLjhjMCwyLjQyLTEuOSw0LjMyLTQuMzQsNC4zMiAgICAgYy0yMC4wNywwLTIwLjA3LDAtMjAuMDcsMGMtMi40MywwLTQuNC0xLjktNC40LTQuMzJDMCw0LjM3LDAsNC4zNywwLDQuMzdDMCwxLjk1LDEuOTcsMCw0LjQsMGMyMC4wNywwLDIwLjA3LDAsMjAuMDcsMCAgICAgYzIuNDQsMCw0LjM0LDEuOTUsNC4zNCw0LjM3VjUzLjh6Ii8+JiN4YTsJCTwvZz4mI3hhOwkJPGcgaWQ9InNoYXBlMzQ2MC00IiB0cmFuc2Zvcm09InRyYW5zbGF0ZSgxMi42MDU4LC01NC40MDIpIj4mI3hhOwkJCTx0aXRsZSBpZD0idGl0bGU0MTMxIj5TaGVldC4zNDYwPC90aXRsZT4mI3hhOwkJCTxwYXRoIGlkPSJwYXRoNDEzMyIgaW5rc2NhcGU6Y29ubmVjdG9yLWN1cnZhdHVyZT0iMCIgc3R5bGU9ImZpbGw6IzhFOUZCMDsiIGQ9Ik0zLjg0LDU3Ljg2YzAsMC4xNy0wLjA5LDAuMjYtMC4yNCwwLjI2ICAgICBjLTMuMzEsMC0zLjMxLDAtMy4zMSwwQzAuMTUsNTguMTIsMCw1OC4wMywwLDU3Ljg2bDAsMGMwLTAuMTMsMC4xNS0wLjIyLDAuMjktMC4yMmMzLjMxLDAsMy4zMSwwLDMuMzEsMCAgICAgQzMuNzUsNTcuNjQsMy44NCw1Ny43MywzLjg0LDU3Ljg2eiIvPiYjeGE7CQk8L2c+JiN4YTsJCTxnIGlkPSJzaGFwZTM0NjEtNiIgdHJhbnNmb3JtPSJ0cmFuc2xhdGUoMTIuNjA1OCwtMS43OTc0MikiPiYjeGE7CQkJPHRpdGxlIGlkPSJ0aXRsZTQxMzYiPlNoZWV0LjM0NjE8L3RpdGxlPiYjeGE7CQkJPHBhdGggaWQ9InBhdGg0MTM4IiBpbmtzY2FwZTpjb25uZWN0b3ItY3VydmF0dXJlPSIwIiBzdHlsZT0iZmlsbDojOEU5RkIwOyIgZD0iTTAsNTYuMjZjMC0xLjAyLDAuODYtMS44NiwxLjkyLTEuODYgICAgIGMxLjA3LDAsMS45MiwwLjg0LDEuOTIsMS44NmMwLDEuMDMtMC44NSwxLjg2LTEuOTIsMS44NkMwLjg2LDU4LjEyLDAsNTcuMjksMCw1Ni4yNnoiLz4mI3hhOwkJPC9nPiYjeGE7CQk8ZyBpZD0ic2hhcGUzNDYyLTgiIHRyYW5zZm9ybT0idHJhbnNsYXRlKDEwLjA4NDcsLTU0LjE2MjMpIj4mI3hhOwkJCTx0aXRsZSBpZD0idGl0bGU0MTQxIj5TaGVldC4zNDYyPC90aXRsZT4mI3hhOwkJCTxwYXRoIGlkPSJwYXRoNDE0MyIgaW5rc2NhcGU6Y29ubmVjdG9yLWN1cnZhdHVyZT0iMCIgc3R5bGU9ImZpbGw6IzhFOUZCMDsiIGQ9Ik0wLDU3LjY0YzAtMC4yNiwwLjIyLTAuNDgsMC40OC0wLjQ4ICAgICBjMC4yNywwLDAuNDgsMC4yMiwwLjQ4LDAuNDhjMCwwLjI3LTAuMjEsMC40OC0wLjQ4LDAuNDhDMC4yMiw1OC4xMiwwLDU3LjkxLDAsNTcuNjR6Ii8+JiN4YTsJCTwvZz4mI3hhOwkJPGcgaWQ9InNoYXBlMzQ2My0xMCIgdHJhbnNmb3JtPSJ0cmFuc2xhdGUoMTQuMjg2NiwtNTYuMzE5MykiPiYjeGE7CQkJPHRpdGxlIGlkPSJ0aXRsZTQxNDYiPlNoZWV0LjM0NjM8L3RpdGxlPiYjeGE7CQkJPHBhdGggaWQ9InBhdGg0MTQ4IiBpbmtzY2FwZTpjb25uZWN0b3ItY3VydmF0dXJlPSIwIiBzdHlsZT0iZmlsbDojOEU5RkIwOyIgZD0iTTAsNTcuODhjMC0wLjEzLDAuMTQtMC4yNCwwLjMtMC4yNCAgICAgYzAuMTcsMCwwLjMsMC4xMSwwLjMsMC4yNHMtMC4xMywwLjI0LTAuMywwLjI0QzAuMTQsNTguMTIsMCw1OC4wMSwwLDU3Ljg4eiIvPiYjeGE7CQk8L2c+JiN4YTsJCTxnIGlkPSJzaGFwZTM0NjQtMTIiIHRyYW5zZm9ybT0idHJhbnNsYXRlKDEuNjgwNzgsLTYuMzUwODkpIj4mI3hhOwkJCTx0aXRsZSBpZD0idGl0bGU0MTUxIj5TaGVldC4zNDY0PC90aXRsZT4mI3hhOwkJCTxwYXRoIGlkPSJwYXRoNDE1MyIgaW5rc2NhcGU6Y29ubmVjdG9yLWN1cnZhdHVyZT0iMCIgc3R5bGU9ImZpbGw6IzhEOUZCMDsiIGQ9Ik0wLDEyLjd2NDUuNDJoMjUuNjlWMTIuN0gweiIvPiYjeGE7CQk8L2c+JiN4YTsJCTxnIGlkPSJzaGFwZTM0NjUtMTQiIHRyYW5zZm9ybT0idHJhbnNsYXRlKDguNDM4NDgsLTIzLjYwNjIpIj4mI3hhOwkJCTx0aXRsZSBpZD0idGl0bGU0MTU2Ij5TaGVldC4zNDY1PC90aXRsZT4mI3hhOwkJCTxwYXRoIGlkPSJwYXRoNDE1OCIgaW5rc2NhcGU6Y29ubmVjdG9yLWN1cnZhdHVyZT0iMCIgc3R5bGU9ImZpbGw6I0ZGRkZGRjsiIGQ9Ik0xMi4zMyw1NC4yOWMtMC4zNCwwLjczLTAuNTEsMS4wNy0wLjk0LDEuNzIgICAgIGMtMC42LDAuOTUtMS40NiwyLjA3LTIuNSwyLjExYy0wLjk0LDAtMS4yLTAuNjUtMi40NS0wLjZjLTEuMjgsMC0xLjU0LDAuNi0yLjQ5LDAuNmMtMS4wNy0wLjA0LTEuODUtMS4wNy0yLjQ1LTEuOTggICAgIGMtMS43Mi0yLjU4LTEuODktNS42LTAuODYtNy4yNGMwLjc3LTEuMTIsMS45NC0xLjgxLDMuMDEtMS44MWMxLjEyLDAsMS44NSwwLjY1LDIuNzUsMC42NXMxLjQ3LTAuNjUsMi43NS0wLjY1ICAgICBjMC45OSwwLDIuMDMsMC41NiwyLjc1LDEuNDdDOS40OSw0OS44OSw5Ljg5LDUzLjM0LDEyLjMzLDU0LjI5eiIvPiYjeGE7CQk8L2c+JiN4YTsJCTxnIGlkPSJzaGFwZTM0NjYtMTYiIHRyYW5zZm9ybT0idHJhbnNsYXRlKDEzLjU3NjYsLTM0LjUxMDUpIj4mI3hhOwkJCTx0aXRsZSBpZD0idGl0bGU0MTYxIj5TaGVldC4zNDY2PC90aXRsZT4mI3hhOwkJCTxwYXRoIGlkPSJwYXRoNDE2MyIgaW5rc2NhcGU6Y29ubmVjdG9yLWN1cnZhdHVyZT0iMCIgc3R5bGU9ImZpbGw6I0ZGRkZGRjsiIGQ9Ik0yLjIsNTYuOTZjMC40NS0wLjYsMC43OS0xLjQxLDAuNjctMi4zMiAgICAgYy0wLjcyLDAuMDktMS42LDAuNTYtMi4xNSwxLjIxYy0wLjQ3LDAuNTUtMC44NSwxLjQxLTAuNjgsMi4yN0MwLjg1LDU4LjEyLDEuNzMsNTcuNjQsMi4yLDU2Ljk2eiIvPiYjeGE7CQk8L2c+JiN4YTsJPC9nPiYjeGE7PC9nPiYjeGE7PC9zdmc+;strokeColor=#000000;fillColor=#ffffff;gradientColor=none;fontSize=12;align=center;fontColor=#333333;" vertex="1" parent="YRHj9bLDyfWNwkcPQVmM-1">
          <mxGeometry x="1053.74" y="802.25" width="29.75" height="59.5" as="geometry" />
        </mxCell>
        <mxCell id="gOYugbjeYTBjjMo5Y4Ug-21" value="Android" style="shape=image;verticalLabelPosition=bottom;labelBackgroundColor=none;verticalAlign=top;aspect=fixed;imageAspect=0;image=data:image/svg+xml,PHN2ZyB4bWxuczpjYz0iaHR0cDovL2NyZWF0aXZlY29tbW9ucy5vcmcvbnMjIiB4bWxuczpkYz0iaHR0cDovL3B1cmwub3JnL2RjL2VsZW1lbnRzLzEuMS8iIHhtbG5zOmlua3NjYXBlPSJodHRwOi8vd3d3Lmlua3NjYXBlLm9yZy9uYW1lc3BhY2VzL2lua3NjYXBlIiB4bWxuczpyZGY9Imh0dHA6Ly93d3cudzMub3JnLzE5OTkvMDIvMjItcmRmLXN5bnRheC1ucyMiIHhtbG5zOnNvZGlwb2RpPSJodHRwOi8vc29kaXBvZGkuc291cmNlZm9yZ2UubmV0L0RURC9zb2RpcG9kaS0wLmR0ZCIgeG1sbnM6c3ZnPSJodHRwOi8vd3d3LnczLm9yZy8yMDAwL3N2ZyIgeG1sbnM9Imh0dHA6Ly93d3cudzMub3JnLzIwMDAvc3ZnIiB4bWxuczp4bGluaz0iaHR0cDovL3d3dy53My5vcmcvMTk5OS94bGluayIgdmVyc2lvbj0iMS4xIiBpZD0ic3ZnMjY3OCIgaW5rc2NhcGU6dmVyc2lvbj0iMC45Mi4zICgyNDA1NTQ2LCAyMDE4LTAzLTExKSIgc29kaXBvZGk6ZG9jbmFtZT0iZGV2aWNlX2FuZHJvaWRfMS5zdmciIHg9IjBweCIgeT0iMHB4IiB2aWV3Qm94PSIwIDAgMzUuMTggNjcuODUiIHN0eWxlPSJlbmFibGUtYmFja2dyb3VuZDpuZXcgMCAwIDM1LjE4IDY3Ljg1OyIgeG1sOnNwYWNlPSJwcmVzZXJ2ZSI+JiN4YTs8c29kaXBvZGk6bmFtZWR2aWV3IGJvcmRlcmNvbG9yPSIjNjY2NjY2IiBib3JkZXJvcGFjaXR5PSIxIiBmaXQtbWFyZ2luLWJvdHRvbT0iMCIgZml0LW1hcmdpbi1sZWZ0PSIwIiBmaXQtbWFyZ2luLXJpZ2h0PSIwIiBmaXQtbWFyZ2luLXRvcD0iMCIgZ3JpZHRvbGVyYW5jZT0iMTAiIGd1aWRldG9sZXJhbmNlPSIxMCIgaWQ9Im5hbWVkdmlldzI2ODAiIGlua3NjYXBlOmN1cnJlbnQtbGF5ZXI9InN2ZzI2NzgiIGlua3NjYXBlOmN4PSIyMy40NTA4OCIgaW5rc2NhcGU6Y3k9IjQ1LjI0MDkyOCIgaW5rc2NhcGU6cGFnZW9wYWNpdHk9IjAiIGlua3NjYXBlOnBhZ2VzaGFkb3c9IjIiIGlua3NjYXBlOndpbmRvdy1oZWlnaHQ9IjEwMTciIGlua3NjYXBlOndpbmRvdy1tYXhpbWl6ZWQ9IjEiIGlua3NjYXBlOndpbmRvdy13aWR0aD0iMTkyMCIgaW5rc2NhcGU6d2luZG93LXg9Ii04IiBpbmtzY2FwZTp3aW5kb3cteT0iLTgiIGlua3NjYXBlOnpvb209IjkuNTg1MzcwNiIgb2JqZWN0dG9sZXJhbmNlPSIxMCIgcGFnZWNvbG9yPSIjZmZmZmZmIiBzaG93Z3JpZD0iZmFsc2UiPiYjeGE7CTwvc29kaXBvZGk6bmFtZWR2aWV3PiYjeGE7PGcgaWQ9ImcyNjc2Ij4mI3hhOwk8dGl0bGUgaWQ9InRpdGxlMjYzNiI+UGFnZS0xPC90aXRsZT4mI3hhOwk8ZyBpZD0iZ3JvdXAzNDkxLTEiPiYjeGE7CQk8dGl0bGUgaWQ9InRpdGxlMjYzOCI+RGV2aWNlOiBBbmRyb2lkICMxPC90aXRsZT4mI3hhOwkJPGcgaWQ9InNoYXBlMzQ5Mi0yIj4mI3hhOwkJCTx0aXRsZSBpZD0idGl0bGUyNjQwIj5TaGVldC4zNDkyPC90aXRsZT4mI3hhOwkJCTxwYXRoIGlkPSJwYXRoMjY0MiIgaW5rc2NhcGU6Y29ubmVjdG9yLWN1cnZhdHVyZT0iMCIgc3R5bGU9ImZpbGw6IzNGNTc2NTsiIGQ9Ik0zNC42OCw4LjdjLTAuMDYsMC0wLjA2LDAtMC4wNiwwICAgICBjMC00Ljc2LDAtNC43NiwwLTQuNzZjMC0xLjgzLTEuNDgtMi44OC0zLjMyLTIuODhjMCwwLTMuMjItMS4wNi0xMy4yNi0xLjA2QzcuOTQsMCwzLjg5LDEuMDYsMy44OSwxLjA2ICAgICBjLTEuODMsMC0zLjMzLDEuMDUtMy4zMywyLjg4YzAsOS41NywwLDkuNTcsMCw5LjU3QzAuMjMsMTMuOCwwLDE0LjE4LDAsMTQuNjhjMCw4LjI1LDAsOC4yNSwwLDguMjVjMCwwLjUsMC4yMywwLjg5LDAuNTYsMS4xNyAgICAgYzAsNDAuNDEsMCw0MC40MSwwLDQwLjQxYzAsMS44MywxLjUsMi43MSwzLjMzLDIuNzFjMCwwLDUuMSwwLjcyLDEzLjg4LDAuNjJjOC44MS0wLjExLDEzLjUzLTAuNjIsMTMuNTMtMC42MiAgICAgYzEuODQsMCwzLjMyLTAuODgsMy4zMi0yLjcxYzAtNTEuMzMsMC01MS4zMywwLTUxLjMzczAsMCwwLjA2LDBjMC4yOSwwLDAuNS0wLjIxLDAuNS0wLjQ5YzAtMy40OSwwLTMuNDksMC0zLjQ5ICAgICBDMzUuMTgsOC45MywzNC45Nyw4LjcsMzQuNjgsOC43eiIvPiYjeGE7CQk8L2c+JiN4YTsJCTxnIGlkPSJzaGFwZTM0OTMtNCIgdHJhbnNmb3JtPSJ0cmFuc2xhdGUoMy4wMDEzOSwtNy44MDM4MSkiPiYjeGE7CQkJPHRpdGxlIGlkPSJ0aXRsZTI2NDUiPlNoZWV0LjM0OTM8L3RpdGxlPiYjeGE7CQkJPHBhdGggaWQ9InBhdGgyNjQ3IiBpbmtzY2FwZTpjb25uZWN0b3ItY3VydmF0dXJlPSIwIiBzdHlsZT0iZmlsbDojOEQ5RkIwOyIgZD0iTTAsMTMuNTZ2NTQuMjhoMjkuMTdWMTMuNTZIMHoiLz4mI3hhOwkJPC9nPiYjeGE7CQk8ZyBpZD0ic2hhcGUzNDk0LTYiIHRyYW5zZm9ybT0idHJhbnNsYXRlKDE2LjY4NzcsLTYzLjQwNDEpIj4mI3hhOwkJCTx0aXRsZSBpZD0idGl0bGUyNjUwIj5TaGVldC4zNDk0PC90aXRsZT4mI3hhOwkJCTxwYXRoIGlkPSJwYXRoMjY1MiIgaW5rc2NhcGU6Y29ubmVjdG9yLWN1cnZhdHVyZT0iMCIgc3R5bGU9ImZpbGw6IzhFOUZCMDsiIGQ9Ik0wLDY2Ljk0YzAtMC41LDAuMzktMC45LDAuODQtMC45ICAgICBjMC40NywwLDAuODQsMC40LDAuODQsMC45YzAsMC41MS0wLjM3LDAuOS0wLjg0LDAuOUMwLjM5LDY3Ljg0LDAsNjcuNDUsMCw2Ni45NHoiLz4mI3hhOwkJPC9nPiYjeGE7CQk8ZyBpZD0ic2hhcGUzNDk1LTgiIHRyYW5zZm9ybT0idHJhbnNsYXRlKDUuNjQyNjEsLTYzLjg4MzQpIj4mI3hhOwkJCTx0aXRsZSBpZD0idGl0bGUyNjU1Ij5TaGVldC4zNDk1PC90aXRsZT4mI3hhOwkJCTxwYXRoIGlkPSJwYXRoMjY1NyIgaW5rc2NhcGU6Y29ubmVjdG9yLWN1cnZhdHVyZT0iMCIgc3R5bGU9ImZpbGw6IzhFOUZCMDsiIGQ9Ik0wLDY3LjQyQzAsNjcuMTksMC4yLDY3LDAuNDIsNjcgICAgIGMwLjI0LDAsMC40MiwwLjE5LDAuNDIsMC40MmMwLDAuMjQtMC4xOCwwLjQyLTAuNDIsMC40MkMwLjIsNjcuODQsMCw2Ny42NiwwLDY3LjQyeiIvPiYjeGE7CQk8L2c+JiN4YTsJCTxnIGlkPSJzaGFwZTM0OTYtMTAiIHRyYW5zZm9ybT0idHJhbnNsYXRlKDEwLjIwNDcsLTMwLjgxMDgpIj4mI3hhOwkJCTx0aXRsZSBpZD0idGl0bGUyNjYwIj5TaGVldC4zNDk2PC90aXRsZT4mI3hhOwkJCTxwYXRoIGlkPSJwYXRoMjY2MiIgaW5rc2NhcGU6Y29ubmVjdG9yLWN1cnZhdHVyZT0iMCIgc3R5bGU9ImZpbGw6I0ZGRkZGRjsiIGQ9Ik0xMy43Miw2MS40OWMtMC41NywwLTEuMDUsMC40OS0xLjA1LDEuMDkgICAgIGMwLDQuMTgsMCw0LjE4LDAsNC4xOGMwLDAuNiwwLjQ4LDEuMDgsMS4wNSwxLjA4YzAuNTgsMCwxLjA1LTAuNDgsMS4wNS0xLjA4YzAtNC4xOCwwLTQuMTgsMC00LjE4ICAgICBDMTQuNzcsNjEuOTgsMTQuMyw2MS40OSwxMy43Miw2MS40OXogTTEuMDcsNjEuNDlDMC40OCw2MS40OSwwLDYxLjk4LDAsNjIuNThjMCw0LjE4LDAsNC4xOCwwLDQuMThjMCwwLjYsMC40OCwxLjA4LDEuMDcsMS4wOCAgICAgYzAuNTcsMCwxLjA1LTAuNDgsMS4wNS0xLjA4YzAtNC4xOCwwLTQuMTgsMC00LjE4QzIuMTIsNjEuOTgsMS42NCw2MS40OSwxLjA3LDYxLjQ5eiIvPiYjeGE7CQk8L2c+JiN4YTsJCTxnIGlkPSJzaGFwZTM0OTctMTIiIHRyYW5zZm9ybT0idHJhbnNsYXRlKDEyLjk2NiwtMjUuMjk4NykiPiYjeGE7CQkJPHRpdGxlIGlkPSJ0aXRsZTI2NjUiPlNoZWV0LjM0OTc8L3RpdGxlPiYjeGE7CQkJPHBhdGggaWQ9InBhdGgyNjY3IiBpbmtzY2FwZTpjb25uZWN0b3ItY3VydmF0dXJlPSIwIiBzdHlsZT0iZmlsbDojRkZGRkZGOyIgZD0iTTAsNTYuMDljMCw3LjU4LDAsNy41OCwwLDcuNTggICAgIGMwLDAuNDUsMC4zNiwwLjgxLDAuODEsMC44MWMwLjkzLDAsMC45MywwLDAuOTMsMGMwLDIuMjksMCwyLjI5LDAsMi4yOWMwLDAuNiwwLjQ3LDEuMDcsMS4wNCwxLjA3czEuMDUtMC40NywxLjA1LTEuMDcgICAgIGMwLTIuMjksMC0yLjI5LDAtMi4yOWMxLjYsMCwxLjYsMCwxLjYsMGMwLDIuMjksMCwyLjI5LDAsMi4yOWMwLDAuNiwwLjQ4LDEuMDcsMS4wNSwxLjA3czEuMDQtMC40NywxLjA0LTEuMDcgICAgIGMwLTIuMjksMC0yLjI5LDAtMi4yOWMwLjkzLDAsMC45MywwLDAuOTMsMGMwLjQ1LDAsMC43OS0wLjM2LDAuNzktMC44MWMwLTcuNTgsMC03LjU4LDAtNy41OEwwLDU2LjA5eiIvPiYjeGE7CQk8L2c+JiN4YTsJCTxnIGlkPSJzaGFwZTM0OTgtMTQiIHRyYW5zZm9ybT0idHJhbnNsYXRlKDEyLjk2NiwtMzcuNzYwOSkiPiYjeGE7CQkJPHRpdGxlIGlkPSJ0aXRsZTI2NzAiPlNoZWV0LjM0OTg8L3RpdGxlPiYjeGE7CQkJPHBhdGggaWQ9InBhdGgyNjcyIiBpbmtzY2FwZTpjb25uZWN0b3ItY3VydmF0dXJlPSIwIiBzdHlsZT0iZmlsbDojRkZGRkZGOyIgZD0iTTYuODMsNjQuNTZjMC44NS0xLjI1LDAuODUtMS4yNSwwLjg1LTEuMjUgICAgIGMwLjA1LTAuMDcsMC4wMy0wLjE2LTAuMDEtMC4yMWMtMC4wOC0wLjA2LTAuMTctMC4wMy0wLjIzLDAuMDVjLTAuOSwxLjMyLTAuOSwxLjMyLTAuOSwxLjMyYy0wLjU4LTAuMjQtMS4yMy0wLjM5LTEuOTItMC4zOSAgICAgYy0wLjY3LDAtMS4zMiwwLjE1LTEuOSwwLjM5Yy0wLjktMS4zMi0wLjktMS4zMi0wLjktMS4zMmMtMC4wNi0wLjA4LTAuMTUtMC4xMS0wLjIzLTAuMDVjLTAuMDQsMC4wNS0wLjA2LDAuMTQtMC4wMSwwLjIxICAgICBjMC44NSwxLjI1LDAuODUsMS4yNSwwLjg1LDEuMjVDMS4wOCw2NS4yLDAuMTIsNjYuNDMsMCw2Ny44NGM5LjI0LDAsOS4yNCwwLDkuMjQsMEM5LjE0LDY2LjQzLDguMTgsNjUuMiw2LjgzLDY0LjU2eiAgICAgIE0yLjY5LDY2LjU1Yy0wLjI5LDAtMC41My0wLjI0LTAuNTMtMC41MmMwLTAuMjcsMC4yNC0wLjUxLDAuNTMtMC41MWMwLjI4LDAsMC40OSwwLjI0LDAuNDksMC41MSAgICAgQzMuMTgsNjYuMzEsMi45Nyw2Ni41NSwyLjY5LDY2LjU1eiBNNi42NSw2Ni41NWMtMC4yOSwwLTAuNS0wLjI0LTAuNS0wLjUyYzAtMC4yNywwLjIxLTAuNTEsMC41LTAuNTEgICAgIGMwLjI4LDAsMC41MSwwLjI0LDAuNTEsMC41MUM3LjE2LDY2LjMxLDYuOTMsNjYuNTUsNi42NSw2Ni41NXoiLz4mI3hhOwkJPC9nPiYjeGE7CTwvZz4mI3hhOzwvZz4mI3hhOzwvc3ZnPg==;strokeColor=#000000;fillColor=#ffffff;gradientColor=none;fontSize=12;align=center;fontColor=#333333;" vertex="1" parent="YRHj9bLDyfWNwkcPQVmM-1">
          <mxGeometry x="982.78" y="803.97" width="28.86" height="56.0625" as="geometry" />
        </mxCell>
      </root>
    </mxGraphModel>
  </diagram>
</mxfile>
